<svg xmlns="http://www.w3.org/2000/svg" viewBox="0 0 512 512"><defs><style>.cls-1{fill:#fff;}</style></defs><g id="Camada_4" data-name="Camada 4"><circle cx="256" cy="256" r="256"/><path class="cls-1" d="M326.54,170.35A15.62,15.62,0,1,0,342.16,186,15.62,15.62,0,0,0,326.54,170.35Z" transform="translate(0 0)"/><path class="cls-1" d="M257.09,190.38A65.62,65.62,0,1,0,322.71,256,65.69,65.69,0,0,0,257.09,190.38Zm0,107.65a42,42,0,1,1,42-42A42.08,42.08,0,0,1,257.09,298Z" transform="translate(0 0)"/><path class="cls-1" d="M309.19,389.22H202.81a80.12,80.12,0,0,1-80-80V202.81a80.12,80.12,0,0,1,80-80H309.19a80.12,80.12,0,0,1,80,80V309.19A80.12,80.12,0,0,1,309.19,389.22ZM202.81,147.85a55,55,0,0,0-55,55V309.19a55,55,0,0,0,55,55H309.19a55,55,0,0,0,55-55V202.81a55,55,0,0,0-55-55Z" transform="translate(0 0)"/></g></svg>