<svg xmlns="http://www.w3.org/2000/svg" viewBox="0 0 512 512"><defs><style>.cls-1{fill:#fff;}</style></defs><g id="Camada_2" data-name="Camada 2"><circle cx="256" cy="256" r="256"/><path class="cls-1" d="M153.43,196.05h44V337.43h-44Zm22-70.26a25.48,25.48,0,1,1-25.52,25.47,25.49,25.49,0,0,1,25.52-25.47" transform="translate(0 0)"/><path class="cls-1" d="M225,196.05h42.16v19.34h.57c5.88-11.13,20.22-22.84,41.62-22.84,44.49,0,52.7,29.26,52.7,67.34v77.54H318.15V268.7c0-16.41-.32-37.5-22.84-37.5-22.88,0-26.37,17.86-26.37,36.3v69.93H225Z" transform="translate(0 0)"/></g></svg>